<?xml version="1.0" encoding="utf-8"?>
<svg width="492" height="170" viewBox="0 0 492 170" fill="none" xmlns="http://www.w3.org/2000/svg">
  <g>
    <path d="M5.59 38.7C6.88 30.358 10.32 27.09 18.49 27.09L23.392 27.09L23.392 76.97C23.392 80.41 20.21 82.56 13.072 82.99L13.072 86L44.892 86L44.892 82.99C37.84 82.56 34.572 80.41 34.572 76.97L34.572 27.09L39.56 27.09C47.73 27.09 51.17 30.358 52.46 38.7L55.47 38.7L55.47 21.5L2.58 21.5L2.58 38.7L5.59 38.7ZM58.13 24.51C63.462 24.94 65.87 27.09 65.87 30.53L65.87 76.97C65.87 80.41 63.462 82.56 58.13 82.99L58.13 86L106.72 86L106.72 67.51L103.71 67.51C102.42 76.368 98.98 80.41 90.81 80.41L77.05 80.41L77.05 55.9L87.37 55.9C90.81 55.9 92.96 57.878 93.39 62.78L96.4 62.78L96.4 43.43L93.39 43.43C92.96 48.418 90.81 50.31 87.37 50.31L77.05 50.31L77.05 27.09L90.38 27.09C98.55 27.09 101.99 29.928 103.28 37.84L106.29 37.84L106.29 21.5L58.13 21.5L58.13 24.51ZM111.1 24.51C116.432 24.94 118.84 27.09 118.84 30.53L118.84 76.97C118.84 80.41 116.432 82.56 111.1 82.99L111.1 86L139.05 86L139.05 82.99C133.202 82.56 130.02 80.41 130.02 76.97L130.02 59.168L137.588 59.168L155.476 86L173.02 86L173.02 82.99C169.236 82.302 165.882 79.808 163.904 77.142L148.768 56.674C156.938 54.782 164.42 49.192 164.42 39.818C164.42 27.95 156.508 21.5 142.662 21.5L111.1 21.5L111.1 24.51ZM130.02 27.09L139.652 27.09C148.682 27.09 152.81 32.078 152.81 39.99C152.81 48.848 148.08 54.008 138.19 54.008L130.02 54.008L130.02 27.09ZM171.81 24.51C177.142 24.94 179.55 27.09 179.55 30.53L179.55 76.97C179.55 80.41 177.142 82.56 171.81 82.99L171.81 86L199.76 86L199.76 82.99C193.912 82.56 190.73 80.41 190.73 76.97L190.73 59.168L198.298 59.168L216.186 86L233.73 86L233.73 82.99C229.946 82.302 226.592 79.808 224.614 77.142L209.478 56.674C217.648 54.782 225.13 49.192 225.13 39.818C225.13 27.95 217.218 21.5 203.372 21.5L171.81 21.5L171.81 24.51ZM190.73 27.09L200.362 27.09C209.392 27.09 213.52 32.078 213.52 39.99C213.52 48.848 208.79 54.008 198.9 54.008L190.73 54.008L190.73 27.09ZM273.886 76.196C275.348 79.722 271.65 82.474 263.91 82.99L263.91 86L294.01 86L294.01 82.99C290.226 81.958 287.732 79.722 286.27 76.368L262.19 21.156L256.6 21.156L234.584 76.712C233.38 79.894 231.058 82.13 226.93 82.99L226.93 86L248.86 86L248.86 82.99C241.98 82.13 239.658 80.238 241.034 76.454L244.646 66.65L269.844 66.65L273.886 76.196ZM256.514 35.174L267.608 61.318L246.624 61.318L256.514 35.174ZM385.158 30.874C384.9 27.348 387.05 24.94 393.5 24.51L393.5 21.5L370.968 21.5L352.134 70.864L331.408 21.5L309.65 21.5L309.65 24.51C316.1 24.94 318.336 27.176 318.164 30.874L315.756 76.368C315.584 80.066 312.918 82.56 307.5 82.99L307.5 86L332.01 86L332.01 82.99C323.84 82.56 321.432 79.636 321.604 75.938L323.41 31.39L346.63 86.344L352.22 86.344L374.064 29.24L377.59 75.938C377.848 79.636 375.44 82.56 367.7 82.99L367.7 86L396.94 86L396.94 82.99C391.522 82.56 389.114 80.152 388.77 76.282L385.158 30.874ZM397.88 24.51C403.212 24.94 405.62 27.09 405.62 30.53L405.62 76.97C405.62 80.41 403.212 82.56 397.88 82.99L397.88 86L424.54 86L424.54 82.99C419.122 82.56 416.8 80.41 416.8 76.97L416.8 30.53C416.8 27.09 419.122 24.94 424.54 24.51L424.54 21.5L397.88 21.5L397.88 24.51ZM468.566 76.196C470.028 79.722 466.33 82.474 458.59 82.99L458.59 86L488.69 86L488.69 82.99C484.906 81.958 482.412 79.722 480.95 76.368L456.87 21.156L451.28 21.156L429.264 76.712C428.06 79.894 425.738 82.13 421.61 82.99L421.61 86L443.54 86L443.54 82.99C436.66 82.13 434.338 80.238 435.714 76.454L439.326 66.65L464.524 66.65L468.566 76.196ZM451.194 35.174L462.288 61.318L441.304 61.318L451.194 35.174Z" transform="" fill="#33637F" />
    <path d="M23.58 76.23C34.38 82.44 41.49 79.2 43.38 73.8C43.74 72.72 43.92 71.91 43.83 71.01C43.74 70.47 42.57 70.2 42.39 70.74C41.49 75.42 35.1 76.05 22.14 69.12C20.16 68.04 16.56 66.15 12.24 64.35C14.85 60.84 17.19 55.17 19.71 46.98C24.57 30.78 29.34 25.83 35.1 26.28C37.89 26.64 39.69 29.43 39.33 32.94C38.97 36.72 36.54 39.51 33.12 38.97C30.78 38.61 30.06 35.28 31.23 32.4C31.86 31.14 29.61 31.68 28.08 34.38C26.37 37.53 26.64 42.84 31.86 43.65C37.26 44.46 41.85 39.78 42.39 34.29C43.02 28.44 39.78 24.57 35.37 24.3C24.57 23.76 17.46 31.23 13.23 48.42C11.7 54.9 10.35 59.85 8.55 62.91C5.04 61.56 2.25 61.2 0.81 63C-0.9 64.98 0.54 69.12 4.14 69.12C6.39 69.12 8.46 68.31 10.35 66.51C14.49 69.3 18.72 73.35 23.58 76.23ZM4.14 65.97C1.08 65.97 2.88 63.09 4.5 63.54C5.4 63.81 6.39 64.17 7.29 64.62C6.39 65.52 5.31 65.97 4.14 65.97ZM36.2 52.65C33.32 61.29 35.75 66.96 39.89 67.68C43.22 68.13 46.19 65.52 48.35 62.1C48.62 65.61 50.6 67.68 53.93 67.68C60.32 67.68 65.45 58.32 69.05 51.21C69.59 50.22 67.88 49.68 67.43 50.4C63.11 58.59 59.24 63.81 56 63.81Q52.355 63.81 54.65 56.25C56 52.2 59.24 43.83 61.4 38.43C61.49 38.16 55.73 37.89 55.46 38.52L54.29 41.31C53.84 39.69 52.94 38.52 51.68 38.07C46.55 36 39.44 42.21 36.2 52.65ZM49.16 56.34C48.44 58.5 48.17 60.48 48.35 62.1C49.79 59.85 50.87 57.15 51.59 54.81C51.95 53.64 50.24 53.01 49.79 54.27C48.08 59.58 45.65 63.81 43.22 63.72C40.79 63.54 39.44 59.85 41.78 52.56C44.21 45.09 47.36 39.87 50.51 40.23C52.67 40.41 53.39 43.47 51.77 48.24C51.77 48.33 51.68 48.33 51.68 48.42C50.78 50.94 49.88 53.73 49.16 56.34ZM126.33 38.52C128.58 32.13 123.99 24.48 111.03 23.58C100.23 22.77 87.63 25.83 83.22 33.48C79.44 39.78 82.41 45.63 89.07 46.44C93.57 46.89 98.25 43.65 99.51 40.86C99.87 39.87 99.42 38.88 98.79 39.87C97.71 41.31 94.74 43.83 91.23 43.2C87 42.48 85.56 38.16 88.17 33.48C91.23 27.9 100.23 25.2 109.32 25.74C110.94 25.83 112.38 26.1 113.73 26.37C109.5 27.99 104.82 34.2 99.78 46.26C94.47 59.04 91.23 64.26 84.66 64.26C79.17 64.26 76.47 59.31 77.91 54.9C79.71 49.23 85.2 48.42 89.25 50.31C90.06 50.76 90.15 49.5 88.71 48.69C84.57 46.35 75.03 48.24 73.23 56.7C72.15 62.64 76.29 68.67 83.67 68.67C89.61 68.67 94.74 66.42 99.24 60.39C99.15 63.27 100.59 66.78 103.47 68.22C111.03 72.36 121.92 68.22 123.63 58.41C124.53 52.47 121.29 48.15 116.07 45.99C120.93 45.09 124.89 42.66 126.33 38.52ZM118.23 56.43C117.24 62.64 112.02 65.61 106.71 64.44C103.29 63.63 101.04 60.75 100.59 58.32C102.39 55.44 104.1 51.93 105.63 47.61L106.08 46.35C106.26 46.44 106.44 46.44 106.8 46.44C114.99 46.8 119.31 50.31 118.23 56.43ZM117.15 27.45L117.24 27.45C121.47 29.43 122.55 32.67 121.47 36.18C119.85 41.58 114.99 44.28 109.41 44.46C109.23 44.46 109.05 44.37 108.87 44.37L108.24 44.37C107.79 44.37 107.34 44.37 106.8 44.28C111.12 32.94 114.18 27.09 117.15 27.45ZM142.19 37.71C135.98 37.71 129.5 43.65 126.62 52.65C123.65 61.74 127.07 67.68 132.38 67.68C136.61 67.68 140.84 64.8 143.99 60.12L145.07 60.12C149.3 60.12 154.52 56.52 157.13 51.48C157.67 50.4 155.96 49.68 155.51 50.58C152.99 55.44 149.48 57.42 146.42 57.33L145.61 57.33C146.42 55.89 147.05 54.36 147.59 52.65C150.47 43.56 147.5 37.71 142.19 37.71ZM133.91 63.9C131.03 63.63 130.22 58.86 132.2 51.84C134.45 44.28 138.23 39.6 141.47 39.69C142.1 39.78 142.55 40.14 142.91 40.77C140.3 41.49 136.34 44.37 135.62 50.04C134.99 54.63 137.06 57.78 140.39 59.22C138.5 62.82 136.16 64.17 133.91 63.9ZM142.64 52.56C142.28 53.91 142.01 55.17 141.65 56.25C139.13 54.81 138.05 52.02 138.59 48.15C139.13 44.37 141.47 42.57 143.36 42.03C143.9 44.37 143.63 48.15 142.64 52.56ZM154.63 38.07C153.46 38.07 153.19 39.87 154.09 39.87L156.79 39.87C154.72 45.63 152.29 52.47 151.12 56.34C148.96 63.09 151.75 67.68 156.61 67.68C163.09 67.68 168.76 58.32 172.36 51.21C172.9 50.22 171.19 49.68 170.74 50.4C166.42 58.59 162.46 63.81 158.68 63.81C156.25 63.81 155.08 61.29 156.7 56.25C157.51 53.73 160.21 46.35 162.73 39.87L167.68 39.87C168.76 39.87 169.03 38.07 168.04 38.07L163.36 38.07C164.62 34.83 165.7 32.58 167.14 29.7C167.41 29.16 160.48 29.25 160.12 30.24L157.51 38.07L154.63 38.07ZM169.77 38.07C168.6 38.07 168.33 39.87 169.23 39.87L171.93 39.87C169.86 45.63 167.43 52.47 166.26 56.34C164.1 63.09 166.89 67.68 171.75 67.68C178.23 67.68 183.9 58.32 187.5 51.21C188.04 50.22 186.33 49.68 185.88 50.4C181.56 58.59 177.6 63.81 173.82 63.81C171.39 63.81 170.22 61.29 171.84 56.25C172.65 53.73 175.35 46.35 177.87 39.87L182.82 39.87C183.9 39.87 184.17 38.07 183.18 38.07L178.5 38.07C179.76 34.83 180.84 32.58 182.28 29.7C182.55 29.16 175.62 29.25 175.26 30.24L172.65 38.07L169.77 38.07ZM182.12 52.65C179.24 61.74 183.92 67.68 190.04 67.68C198.5 67.68 205.16 58.32 208.76 51.21C209.3 50.22 207.59 49.68 207.14 50.4C202.91 58.59 197.51 63.81 192.2 63.81C188.24 63.81 185.63 59.49 187.79 52.56L187.97 51.84L188.06 51.84C193.64 52.74 201.02 50.58 202.55 45C203.54 41.13 201.38 37.62 197.87 37.71C192.47 37.71 185 43.65 182.12 52.65ZM197.42 39.69C199.4 39.96 199.76 42.12 198.68 44.73C197.24 48.15 192.2 50.94 188.42 50.58C190.94 44.01 194.9 39.51 197.42 39.69ZM203.74 52.65C201.04 61.29 203.38 66.96 207.61 67.68C209.86 67.95 211.93 66.87 213.73 65.07L212.83 68.13C211.48 73.08 207.43 76.95 203.92 76.41C199.33 75.78 201.13 69.93 204.64 69.75C205.54 69.66 204.91 68.67 203.38 68.58C201.31 68.58 199.06 69.48 198.16 72.27C196.99 75.96 199.33 79.11 202.75 79.92C209.14 81.54 215.26 78.12 218.14 69.48C219.31 65.88 221.02 60.03 222.28 56.25C223.72 52.2 226.87 43.83 229.03 38.43C229.12 38.16 223.36 37.89 223.09 38.52L221.92 41.31C221.47 39.69 220.57 38.52 219.31 38.07C214.18 36 207.07 42.21 203.74 52.65ZM216.7 56.34L216.43 56.97C214.81 61.02 212.83 63.81 210.85 63.72C208.42 63.54 206.98 59.85 209.41 52.56C211.84 45.09 214.9 39.87 218.14 40.23C220.3 40.41 221.02 43.47 219.4 48.24C219.31 48.33 219.31 48.42 219.31 48.42C218.41 51.03 217.51 53.73 216.7 56.34ZM226.8 52.65C223.92 61.29 226.35 66.96 230.49 67.68C233.82 68.13 236.79 65.52 238.95 62.1C239.22 65.61 241.2 67.68 244.53 67.68C250.92 67.68 256.05 58.32 259.65 51.21C260.19 50.22 258.48 49.68 258.03 50.4C253.71 58.59 249.84 63.81 246.6 63.81Q242.955 63.81 245.25 56.25C246.6 52.2 249.84 43.83 252 38.43C252.09 38.16 246.33 37.89 246.06 38.52L244.89 41.31C244.44 39.69 243.54 38.52 242.28 38.07C237.15 36 230.04 42.21 226.8 52.65ZM239.76 56.34C239.04 58.5 238.77 60.48 238.95 62.1C240.39 59.85 241.47 57.15 242.19 54.81C242.55 53.64 240.84 53.01 240.39 54.27C238.68 59.58 236.25 63.81 233.82 63.72C231.39 63.54 230.04 59.85 232.38 52.56C234.81 45.09 237.96 39.87 241.11 40.23C243.27 40.41 243.99 43.47 242.37 48.24C242.37 48.33 242.28 48.33 242.28 48.42C241.38 50.94 240.48 53.73 239.76 56.34ZM263.47 52.65C260.59 61.29 263.02 66.96 267.25 67.68C270.58 68.13 273.46 65.61 275.53 62.28C275.89 65.61 277.96 67.68 281.2 67.68C287.59 67.68 292.72 58.32 296.32 51.21C296.86 50.22 295.15 49.68 294.7 50.4C290.38 58.59 286.51 63.81 283.27 63.81Q279.625 63.81 281.92 56.25C283.27 52.2 291.73 30.33 293.8 25.02C293.98 24.66 288.22 24.48 287.95 25.11C287.14 26.82 284.35 34.02 281.56 41.4C281.11 39.78 280.21 38.61 278.95 38.07C273.82 36 266.71 42.21 263.47 52.65ZM276.97 54.36C275.26 59.76 272.92 63.81 270.49 63.72C268.06 63.54 266.71 59.85 269.05 52.56C271.48 45.09 274.63 39.87 277.78 40.23C279.94 40.41 280.66 43.47 279.04 48.24C278.32 50.31 277.6 52.29 276.97 54.36ZM290.94 52.65C288.06 61.74 292.74 67.68 298.86 67.68C307.32 67.68 313.98 58.32 317.58 51.21C318.12 50.22 316.41 49.68 315.96 50.4C311.73 58.59 306.33 63.81 301.02 63.81C297.06 63.81 294.45 59.49 296.61 52.56L296.79 51.84L296.88 51.84C302.46 52.74 309.84 50.58 311.37 45C312.36 41.13 310.2 37.62 306.69 37.71C301.29 37.71 293.82 43.65 290.94 52.65ZM306.24 39.69C308.22 39.96 308.58 42.12 307.5 44.73C306.06 48.15 301.02 50.94 297.24 50.58C299.76 44.01 303.72 39.51 306.24 39.69ZM329.84 50.4C325.52 58.59 321.65 63.81 318.5 63.81C316.07 63.81 315.53 61.29 317.06 56.25C318.41 52.2 321.74 43.83 323.81 38.43C323.99 38.16 318.23 37.89 317.96 38.52C316.61 41.49 313.64 49.32 311.48 56.34C309.41 63.09 311.48 67.68 316.43 67.68C322.64 67.68 327.95 58.32 331.55 51.21C332 50.22 330.29 49.68 329.84 50.4ZM326.6 32.22C326.69 30.51 325.43 28.98 323.72 28.98C321.92 28.98 320.3 30.51 320.12 32.22C319.85 34.02 321.2 35.55 323 35.55C324.8 35.55 326.33 34.02 326.6 32.22ZM352.92 33.48C354.09 28.8 360.93 26.28 365.88 26.46C370.56 26.73 373.08 29.16 372.45 32.13C372 34.83 368.85 36.81 365.52 36.36C363.18 36 362.37 32.85 363.45 30.96C364.17 29.7 361.92 29.97 360.39 32.67C358.68 35.55 359.94 40.05 363.99 40.59C369.48 41.22 374.52 36.81 375.24 33.12C376.23 28.08 372.27 24.84 366.69 24.48C358.86 23.94 348.42 27.72 347.07 34.02C345.36 41.94 362.19 47.52 360.48 57.33C359.58 62.46 354.72 65.16 348.87 64.35C343.47 63.54 339.78 59.22 341.22 54.81C343.02 49.14 348.51 48.42 352.56 50.31C353.28 50.76 353.46 49.5 352.02 48.69C347.88 46.35 337.44 48.15 335.64 56.61C334.56 62.28 340.14 67.68 347.25 68.49C357.24 69.66 365.97 64.35 367.23 57.42C369.03 47.61 351.48 39.96 352.92 33.48ZM370.58 52.65C367.7 61.29 370.13 66.96 374.27 67.68C377.6 68.13 380.57 65.52 382.73 62.1C383 65.61 384.98 67.68 388.31 67.68C394.7 67.68 399.83 58.32 403.43 51.21C403.97 50.22 402.26 49.68 401.81 50.4C397.49 58.59 393.62 63.81 390.38 63.81Q386.735 63.81 389.03 56.25C390.38 52.2 393.62 43.83 395.78 38.43C395.87 38.16 390.11 37.89 389.84 38.52L388.67 41.31C388.22 39.69 387.32 38.52 386.06 38.07C380.93 36 373.82 42.21 370.58 52.65ZM383.54 56.34C382.82 58.5 382.55 60.48 382.73 62.1C384.17 59.85 385.25 57.15 385.97 54.81C386.33 53.64 384.62 53.01 384.17 54.27C382.46 59.58 380.03 63.81 377.6 63.72C375.17 63.54 373.82 59.85 376.16 52.56C378.59 45.09 381.74 39.87 384.89 40.23C387.05 40.41 387.77 43.47 386.15 48.24C386.15 48.33 386.06 48.33 386.06 48.42C385.16 50.94 384.26 53.73 383.54 56.34ZM417.76 54.63C418.39 52.92 418.75 51.84 419.92 48.15C421.81 41.76 420.28 38.07 415.87 38.07C413.08 38.07 410.2 39.87 408.04 42.39C408.67 40.59 409.21 39.24 409.57 38.43C409.75 38.07 403.99 37.8 403.72 38.52C402.37 41.4 390.13 73.89 387.97 80.91L393.64 80.91L399.76 64.17C400.21 66.06 402.46 67.59 406.6 67.68L406.78 67.68L406.96 67.68C414.07 67.59 421.45 62.19 426.94 51.21C427.48 50.22 425.77 49.68 425.32 50.4C421.72 57.24 417.13 61.56 413.08 63.72C414.79 61.56 416.5 58.5 417.76 54.63ZM406.15 47.25C407.59 44.28 410.29 41.13 412.81 41.13C415.15 41.13 415.69 43.47 414.34 48.15L412.45 53.82C410.29 60.48 408.13 63.81 404.98 63.81C402.01 63.81 401.56 61.02 404.71 59.4C405.52 58.95 403.99 57.96 402.64 58.86C402.1 59.22 401.74 59.58 401.38 59.94L406.15 47.25ZM437.4 37.71C431.19 37.71 424.71 43.65 421.83 52.65C418.86 61.74 422.28 67.68 427.59 67.68C431.82 67.68 436.05 64.8 439.2 60.12L440.28 60.12C444.51 60.12 449.73 56.52 452.34 51.48C452.88 50.4 451.17 49.68 450.72 50.58C448.2 55.44 444.69 57.42 441.63 57.33L440.82 57.33C441.63 55.89 442.26 54.36 442.8 52.65C445.68 43.56 442.71 37.71 437.4 37.71ZM429.12 63.9C426.24 63.63 425.43 58.86 427.41 51.84C429.66 44.28 433.44 39.6 436.68 39.69C437.31 39.78 437.76 40.14 438.12 40.77C435.51 41.49 431.55 44.37 430.83 50.04C430.2 54.63 432.27 57.78 435.6 59.22C433.71 62.82 431.37 64.17 429.12 63.9ZM437.85 52.56C437.49 53.91 437.22 55.17 436.86 56.25C434.34 54.81 433.26 52.02 433.8 48.15C434.34 44.37 436.68 42.57 438.57 42.03C439.11 44.37 438.84 48.15 437.85 52.56ZM448.31 50.4C447.77 51.39 449.57 52.29 450.02 51.21C451.37 48.69 452.63 45.36 453.53 42.21C455.87 41.85 458.93 40.86 459.47 41.04C460.01 41.31 456.05 47.88 453.26 56.34C451.01 63 453.26 67.68 458.21 67.68C464.69 67.68 470.36 58.32 474.05 51.21C474.5 50.22 472.79 49.68 472.25 50.4C468.02 58.59 463.97 63.36 460.91 63.36C458.66 63.36 457.94 60.12 462.17 47.16C464.33 40.68 464.69 37.98 461.18 37.98C457.4 37.98 453.08 40.32 455.51 34.02C455.96 32.85 449.84 34.11 449.57 35.01C448.67 37.89 448.94 41.58 451.46 42.21C450.65 45 449.57 47.97 448.31 50.4ZM486.22 50.4C481.9 58.59 478.03 63.81 474.88 63.81C472.45 63.81 471.91 61.29 473.44 56.25C474.79 52.2 478.12 43.83 480.19 38.43C480.37 38.16 474.61 37.89 474.34 38.52C472.99 41.49 470.02 49.32 467.86 56.34C465.79 63.09 467.86 67.68 472.81 67.68C479.02 67.68 484.33 58.32 487.93 51.21C488.38 50.22 486.67 49.68 486.22 50.4ZM482.98 32.22C483.07 30.51 481.81 28.98 480.1 28.98C478.3 28.98 476.68 30.51 476.5 32.22C476.23 34.02 477.58 35.55 479.38 35.55C481.18 35.55 482.71 34.02 482.98 32.22Z" fill="#9B4018" transform="translate(4 79)" />
  </g>
</svg>